<svg xmlns="http://www.w3.org/2000/svg" viewBox="0 0 1200 630" width="1200" height="630">
  <rect width="1200" height="630" fill="#101827"/>
  <path d="M0 70H1200M0 140H1200M0 210H1200M0 280H1200M0 350H1200M0 420H1200M0 490H1200M0 560H1200M100 0V630M200 0V630M300 0V630M400 0V630M500 0V630M600 0V630M700 0V630M800 0V630M900 0V630M1000 0V630M1100 0V630" stroke="#2dd4bf" stroke-opacity=".14" stroke-width="2"/>
  <g transform="translate(92 130)">
    <rect x="0" y="0" width="340" height="300" rx="18" fill="#172033" stroke="#2dd4bf" stroke-width="8"/>
    <rect x="34" y="44" width="272" height="82" rx="8" fill="#0f172a" stroke="#facc15" stroke-width="5"/>
    <text x="170" y="98" text-anchor="middle" font-family="monospace" font-size="46" font-weight="900" fill="#facc15">READY</text>
    <path d="M66 208h84M108 166v84" stroke="#facc15" stroke-width="18" stroke-linecap="square"/>
    <circle cx="236" cy="190" r="25" fill="#f472b6"/>
    <circle cx="282" cy="232" r="25" fill="#22c55e"/>
  </g>
  <g transform="translate(505 190)">
    <text x="0" y="0" font-family="monospace" font-size="92" font-weight="900" fill="#facc15">TouchGame</text>
    <text x="0" y="72" font-family="monospace" font-size="34" font-weight="900" fill="#2dd4bf">RETRO TOUCH ARCADE</text>
    <text x="0" y="130" font-family="system-ui, sans-serif" font-size="30" font-weight="800" fill="#f8fafc">고르고, 누르고, 바로 플레이</text>
    <g transform="translate(0 178)" font-family="system-ui, sans-serif" font-size="24" font-weight="900">
      <rect x="0" y="0" width="150" height="52" rx="8" fill="#facc15"/>
      <text x="75" y="34" text-anchor="middle" fill="#101827">60 GAMES</text>
      <rect x="170" y="0" width="190" height="52" rx="8" fill="#172033" stroke="#2dd4bf" stroke-width="3"/>
      <text x="265" y="34" text-anchor="middle" fill="#f8fafc">TOUCH READY</text>
      <rect x="380" y="0" width="160" height="52" rx="8" fill="#172033" stroke="#f472b6" stroke-width="3"/>
      <text x="460" y="34" text-anchor="middle" fill="#f8fafc">OFFLINE</text>
    </g>
  </g>
</svg>
